<svg width="251" height="59" viewBox="0 0 251 59" fill="none" xmlns="http://www.w3.org/2000/svg">
<path d="M6.34442 46.7188C9.5274 46.7188 11.8142 44.8438 11.8142 40.9688V26.8125C11.8142 23 13.8847 20.3438 17.5621 20.3438C21.1777 20.3438 23.0628 22.7188 23.0628 26.5625V40.9688C23.0628 44.8438 25.3187 46.7188 28.5325 46.7188C31.7464 46.7188 34.0023 44.8438 34.0023 40.9688V24.1562C34.0023 16.125 29.8304 11.3125 22.3211 11.3125C17.1913 11.3125 13.5138 13.8125 11.7833 18.375H11.567V5.84375C11.567 2.25 9.6201 0.1875 6.22081 0.1875C2.82152 0.1875 0.84375 2.25 0.84375 5.8125V40.9688C0.84375 44.8438 3.13055 46.7188 6.34442 46.7188Z" fill="#FF4B3A"/>
<path d="M53.4265 46.8125C60.1323 46.8125 65.5712 44.4062 67.7962 40.4062C68.2906 39.5938 68.5379 38.75 68.5379 37.9062C68.5379 35.4688 66.6528 34.0312 64.4278 34.0312C63.0681 34.0312 62.1719 34.4062 61.0285 35.5C58.5872 38 56.5167 38.9688 53.5192 38.9688C49.5636 38.9688 46.8751 36.1562 46.8751 32.0312V31.4062H65.1695C68.0125 31.4062 69.5886 29.8438 69.5886 27.0312C69.5886 17.8438 63.0063 11.1562 52.9938 11.1562C42.7342 11.1562 36.2446 18.125 36.2446 29.1562C36.2446 40.2188 42.6414 46.8125 53.4265 46.8125ZM47.0296 25.0938C47.3077 21.5312 49.8109 19.0312 53.2102 19.0312C56.6403 19.0312 59.0817 21.4062 59.2671 25.0938H47.0296Z" fill="#FF4B3A"/>
<path d="M77.6406 46.7188C80.8235 46.7188 83.1103 44.8438 83.1103 40.9688V5.9375C83.1103 2.0625 80.8235 0.1875 77.6406 0.1875C74.4267 0.1875 72.1399 2.0625 72.1399 5.9375V40.9688C72.1399 44.8438 74.4267 46.7188 77.6406 46.7188Z" fill="#FF4B3A"/>
<path d="M92.1821 58.2188C95.3651 58.2188 97.6519 56.3438 97.6519 52.4688V40.1875H97.8682C99.506 44.125 103.214 46.5 108.159 46.5C116.533 46.5 121.447 40.0938 121.447 29C121.447 17.875 116.502 11.4688 108.004 11.4688C103.153 11.4688 99.506 13.9375 97.8064 18.0312H97.5901V16.9688C97.5901 13.0938 95.3342 11.25 92.1512 11.25C88.9373 11.25 86.6814 13.0938 86.6814 16.9375V52.4688C86.6814 56.3438 88.9682 58.2188 92.1821 58.2188ZM103.925 37.8438C100.062 37.8438 97.621 34.4062 97.5901 29C97.621 23.625 100.093 20.125 103.925 20.125C107.788 20.125 110.26 23.5938 110.26 29C110.26 34.4062 107.819 37.8438 103.925 37.8438Z" fill="#FF4B3A"/>
<path d="M132.095 46.7188C135.309 46.7188 137.565 44.875 137.565 41V20.125H140.531C142.694 20.125 144.394 18.7188 144.394 16.1562C144.394 13.625 142.694 12.2188 140.531 12.2188H137.255V10.7812C137.255 8.78125 138.275 7.8125 141.026 7.65625C141.705 7.625 142.293 7.53125 142.787 7.375C144.147 7 144.827 6.15625 144.827 4.71875C144.827 2.25 142.571 0.4375 136.761 0.4375C129.962 0.5 126.594 3.4375 126.594 10.25V12.2188H125.389C123.257 12.2188 121.526 13.625 121.526 16.1562C121.526 18.7188 123.257 20.125 125.389 20.125H126.594V41C126.594 44.875 128.85 46.7188 132.095 46.7188Z" fill="#FF4B3A"/>
<path d="M161.809 46.8125C172.409 46.8125 179.022 40.3438 179.022 28.9688C179.022 17.8125 172.316 11.1562 161.809 11.1562C151.364 11.1562 144.597 17.8438 144.597 28.9688C144.597 40.3125 151.21 46.8125 161.809 46.8125ZM161.809 38.6875C158.039 38.6875 155.722 35.2188 155.722 29C155.722 22.875 158.101 19.2812 161.809 19.2812C165.549 19.2812 167.928 22.875 167.928 29C167.928 35.2188 165.549 38.6875 161.809 38.6875Z" fill="#FF4B3A"/>
<path d="M197.55 46.8125C208.15 46.8125 214.763 40.3438 214.763 28.9688C214.763 17.8125 208.057 11.1562 197.55 11.1562C187.105 11.1562 180.337 17.8438 180.337 28.9688C180.337 40.3125 186.951 46.8125 197.55 46.8125ZM197.55 38.6875C193.78 38.6875 191.462 35.2188 191.462 29C191.462 22.875 193.842 19.2812 197.55 19.2812C201.289 19.2812 203.669 22.875 203.669 29C203.669 35.2188 201.289 38.6875 197.55 38.6875Z" fill="#FF4B3A"/>
<path d="M229.49 46.5C234.589 46.5 238.39 43.75 239.688 40.0625H239.904V41.0312C239.904 44.875 242.191 46.7188 245.374 46.7188C248.588 46.7188 250.844 44.875 250.844 41.0312V5.9375C250.844 2.0625 248.588 0.1875 245.374 0.1875C242.16 0.1875 239.904 2.0625 239.904 5.9375V17.9688H239.688C238.205 14.1562 234.496 11.4688 229.614 11.4688C221.208 11.4688 216.078 18.0312 216.078 28.9062C216.078 39.9062 221.115 46.5 229.49 46.5ZM233.6 37.8438C229.645 37.8438 227.296 34.5 227.296 29C227.296 23.5312 229.675 20.125 233.6 20.125C237.525 20.125 239.935 23.5312 239.935 29C239.935 34.5312 237.556 37.8438 233.6 37.8438Z" fill="#FF4B3A"/>
</svg>
